<svg width="56" height="56" viewBox="0 0 56 56" fill="none" xmlns="http://www.w3.org/2000/svg">
<path d="M19.1612 19.1612C17.1163 21.2061 15.8437 23.8968 15.5602 26.7748C15.2767 29.6528 16 32.5401 17.6066 34.9446C19.2133 37.3492 21.604 39.1223 24.3714 39.9618C27.1389 40.8012 30.1117 40.6552 32.7835 39.5485C35.4553 38.4418 37.6608 36.4429 39.024 33.8925C40.3873 31.342 40.824 28.3977 40.2598 25.5614C39.6956 22.725 38.1654 20.172 35.9299 18.3374C33.6944 16.5027 30.8919 15.5 28 15.5" stroke="#232323" stroke-linecap="round"/>
<path d="M28.0002 27.9999L21.3335 21.3333" stroke="#232323" stroke-linecap="round"/>
<path d="M28 15.3333V18.6666" stroke="#232323" stroke-linecap="round"/>
<path d="M40 28L37.3333 28" stroke="#232323" stroke-linecap="round"/>
<path d="M28 37.3333V39.9999" stroke="#232323" stroke-linecap="round"/>
<path d="M18.6665 28L15.9998 28" stroke="#232323" stroke-linecap="round"/>
</svg>
